#!OML:ASF F:\VICON\USERDATA\INSTALL\rory3\rory3.ASF
:FULLY-SPECIFIED
:DEGREES
429
root 3.27429 17.9005 14.9895 -7.85014 -0.0776358 -0.945825
lowerback 17.6992 -1.5337 -1.31541
upperback 0.956291 -1.86473 4.65423
thorax -8.70739 -0.74313 6.29217
lowerneck -8.97578 -2.87751 -2.35359
upperneck 29.7896 -2.29895 -4.88627
head 11.0705 -1.90214 -1.65129
rclavicle 6.11263e-014 -6.36111e-015
rhumerus -26.054 -27.4322 -64.2959
rradius 30.4652
rwrist 4.92523
rhand -2.94933 -4.26489
rfingers 7.12502
rthumb 22.7626 -32.942
lclavicle 6.11263e-014 -6.36111e-015
lhumerus -36.6018 -3.59618 85.6242
lradius 54.124
lwrist 5.71945
lhand -12.4464 48.363
lfingers 7.12502
lthumb 13.6268 77.8969
rfemur -17.2185 5.35217 25.3114
rtibia 36.3221
rfoot -7.75539 -10.7192
rtoes 19.2719
lfemur -1.27764 -3.64644 -18.8037
ltibia 61.8391
lfoot 33.1319 -9.26166
ltoes -7.25408
430
root 3.24727 17.9381 15.2092 -7.92271 -0.095307 -1.23518
lowerback 17.6739 -1.4358 -1.06628
upperback 0.986891 -1.67909 4.72887
thorax -8.68645 -0.662963 6.1827
lowerneck -9.00008 -2.92878 -2.32404
upperneck 29.8133 -2.3873 -4.84044
head 11.0826 -1.93291 -1.65105
rclavicle -2.61402e-014 -3.65764e-014
rhumerus -26.7037 -30.3409 -62.9961
rradius 28.0481
rwrist 2.84178
rhand -3.84368 -4.32651
rfingers 7.12502
rthumb 21.9041 -33.1066
lclavicle -2.61402e-014 -3.65764e-014
lhumerus -36.9389 -3.38866 85.6306
lradius 53.8258
lwrist 4.2168
lhand -11.1802 47.817
lfingers 7.12502
lthumb 14.8469 77.2651
rfemur -16.0644 5.34492 25.7977
rtibia 35.9459
rfoot -8.35726 -10.7487
rtoes 19.8791
lfemur -2.7748 -3.25879 -18.3239
ltibia 63.5791
lfoot 30.1136 -9.04574
ltoes -8.39572
431
root 3.21997 17.9775 15.4267 -7.97408 -0.195381 -1.39176
lowerback 17.5727 -1.27437 -0.986674
upperback 1.06486 -1.44731 4.79424
thorax -8.57119 -0.557372 6.14358
lowerneck -9.04956 -3.00669 -2.54228
upperneck 29.842 -2.53478 -4.5384
head 11.1108 -1.98753 -1.52273
rclavicle -4.81556e-014 1.59028e-015
rhumerus -27.688 -34.1196 -61.1658
rradius 25.7614
rwrist 2.11497
rhand -4.5902 -3.66156
rfingers 7.12502
rthumb 21.1871 -32.5238
lclavicle -4.81556e-014 1.59028e-015
lhumerus -37.3977 -3.38747 85.8637
lradius 53.4314
lwrist 4.70102
lhand -11.8515 43.7674
lfingers 7.12502
lthumb 14.2001 73.262
rfemur -14.9624 5.28898 26.1491
rtibia 35.5139
rfoot -8.93332 -10.7233
rtoes 19.3729
lfemur -4.24671 -2.80655 -18.0065
ltibia 65.0792
lfoot 26.6187 -8.74274
ltoes -10.2707
432
root 3.19774 18.0106 15.6269 -7.89022 -0.437746 -1.6031
lowerback 17.5744 -1.06838 -0.775116
upperback 0.987308 -1.12144 4.87825
thorax -8.69635 -0.402036 6.03877
lowerneck -8.55691 -3.0883 -2.9645
upperneck 29.8064 -2.70871 -4.11185
head 11.0132 -2.05777 -1.30365
rclavicle 3.37437e-014 -5.88403e-014
rhumerus -29.2625 -37.0752 -59.1775
rradius 24.3862
rwrist 1.0886
rhand -5.21545 -3.45525
rfingers 7.12502
rthumb 20.5864 -32.3836
lclavicle 3.37437e-014 -5.88403e-014
lhumerus -37.8864 -3.29267 86.0821
lradius 53.0665
lwrist 4.35383
lhand -11.4997 46.3337
lfingers 7.12502
lthumb 14.5391 75.8042
rfemur -14.0766 5.2814 26.5522
rtibia 35.0189
rfoot -9.4043 -10.5652
rtoes 16.4142
lfemur -5.84911 -2.20163 -17.6123
ltibia 66.4336
lfoot 23.0999 -9.01869
ltoes -11.7866
433
root 3.18518 18.047 15.8533 -7.87063 -0.342798 -1.45411
lowerback 17.2661 -0.995075 -0.713279
upperback 0.978516 -1.02719 4.77121
thorax -8.54716 -0.365104 5.84711
lowerneck -8.72885 -3.11344 -2.95646
upperneck 30.1335 -2.7653 -3.98322
head 11.1749 -2.0716 -1.27701
rclavicle 5.36719e-015 -7.95139e-015
rhumerus -31.0466 -39.4094 -57.3952
rradius 23.5862
rwrist -0.425118
rhand -6.41165 -3.83845
rfingers 7.12502
rthumb 19.4366 -32.887
lclavicle 5.36719e-015 -7.95139e-015
lhumerus -38.4516 -3.11393 86.0987
lradius 52.7158
lwrist 3.86556
lhand -11.2417 47.0284
lfingers 7.12502
lthumb 14.7876 76.4808
rfemur -12.9646 4.60097 26.41
rtibia 34.5381
rfoot -10.0282 -9.99184
rtoes 14.5761
lfemur -7.06242 -1.9169 -17.8348
ltibia 67.412
lfoot 19.7754 -9.00934
ltoes -12.215
434
root 3.16251 18.0816 16.075 -7.92031 -0.451618 -1.61478
lowerback 17.157 -0.871326 -0.467038
upperback 0.99783 -0.818765 4.76125
thorax -8.49082 -0.275934 5.6379
lowerneck -8.55217 -3.18402 -2.96599
upperneck 30.041 -2.87041 -3.98829
head 11.1028 -2.11772 -1.28305
rclavicle -2.13197e-014 1.59028e-014
rhumerus -33.702 -43.4842 -54.1994
rradius 22.2442
rwrist 0.69273
rhand -7.01776 -2.15937
rfingers 7.12502
rthumb 18.8537 -31.2657
lclavicle -2.13197e-014 1.59028e-014
lhumerus -39.278 -2.95177 86.0397
lradius 52.6631
lwrist 3.75194
lhand -10.9196 47.06
lfingers 7.12502
lthumb 15.098 76.4894
rfemur -11.8532 4.26092 26.7112
rtibia 34.0472
rfoot -10.4869 -9.70505
rtoes 13.2259
lfemur -8.24095 -1.42736 -17.5654
ltibia 68.2128
lfoot 17.0168 -8.7655
ltoes -12.6413
435
root 3.13698 18.1136 16.2865 -7.93803 -0.744339 -1.94159
lowerback 17.1739 -0.722235 -0.161512
upperback 0.992851 -0.552243 4.85973
thorax -8.5348 -0.156056 5.50696
lowerneck -8.49545 -3.21342 -3.11249
upperneck 30.0706 -2.88158 -3.98824
head 11.1072 -2.13821 -1.25871
rclavicle 1.5704e-014 1.43125e-014
rhumerus -36.2088 -46.0462 -51.5366
rradius 21.6831
rwrist 0.635371
rhand -8.12857 -1.90721
rfingers 7.12502
rthumb 17.7851 -31.1139
lclavicle 1.5704e-014 1.43125e-014
lhumerus -40.089 -2.49512 85.9432
lradius 52.5672
lwrist 3.78341
lhand -10.5371 47.2219
lfingers 7.12502
lthumb 15.4664 76.6232
rfemur -10.9038 4.23669 27.2523
rtibia 33.6118
rfoot -10.8593 -9.68207
rtoes 12.7294
lfemur -9.46932 -0.751741 -17.0335
ltibia 68.7961
lfoot 14.8861 -8.79644
ltoes -13.2694
436
root 3.11618 18.1314 16.4795 -7.76468 -0.880141 -2.18676
lowerback 17.1302 -0.618202 0.139289
upperback 0.931581 -0.349541 4.91235
thorax -8.59887 -0.0669217 5.34307
lowerneck -8.5738 -3.17779 -3.21143
upperneck 30.217 -2.81353 -3.93758
head 11.1838 -2.11351 -1.22066
rclavicle -5.71506e-015 4.45278e-014
rhumerus -37.9318 -46.6695 -50.3555
rradius 21.987
rwrist -1.73875
rhand -9.99586 -2.50437
rfingers 7.12502
rthumb 15.9876 -31.8646
lclavicle -5.71506e-015 4.45278e-014
lhumerus -40.7086 -2.06526 85.7645
lradius 52.3408
lwrist 3.96297
lhand -10.2376 47.6546
lfingers 7.12502
lthumb 15.7548 77.0334
rfemur -10.1172 4.26114 27.6674
rtibia 33.1857
rfoot -11.2375 -9.80964
rtoes 12.7397
lfemur -11.0008 -0.216342 -16.6852
ltibia 69.3131
lfoot 12.9357 -8.83476
ltoes -14.5387
437
root 3.10332 18.1341 16.6878 -7.80953 -0.7477 -1.94589
lowerback 17.1084 -0.557064 0.133789
upperback 0.983613 -0.286068 4.75594
thorax -8.53562 -0.0412454 5.15552
lowerneck -8.80246 -3.13652 -3.15334
upperneck 30.2932 -2.74516 -3.94817
head 11.2583 -2.07814 -1.23311
rclavicle -6.80837e-015 -2.54444e-014
rhumerus -39.6909 -47.5168 -49.1396
rradius 22.3311
rwrist -3.78114
rhand -11.4917 -2.8895
rfingers 7.12502
rthumb 14.5468 -32.3595
lclavicle -6.80837e-015 -2.54444e-014
lhumerus -41.2556 -1.6422 85.4927
lradius 52.1658
lwrist 4.17879
lhand -10.2781 48.0547
lfingers 7.12502
lthumb 15.7159 77.4366
rfemur -8.84678 3.91725 27.4653
rtibia 32.7591
rfoot -11.7193 -9.90854
rtoes 14.3776
lfemur -12.0769 0.0582007 -17.0697
ltibia 69.5915
lfoot 10.7412 -8.32816
ltoes -14.9292
438
root 3.0838 18.1375 16.8965 -7.88903 -0.866423 -2.258
lowerback 17.1136 -0.50493 0.573148
upperback 1.09434 -0.135137 4.77312
thorax -8.43199 0.0120094 4.88101
lowerneck -9.04901 -3.12954 -3.23419
upperneck 30.2702 -2.7397 -3.82267
head 11.3032 -2.06977 -1.17739
rclavicle 1.15295e-014 2.38542e-014
rhumerus -41.4778 -48.1472 -48.0614
rradius 23.0043
rwrist -5.68055
rhand -12.4579 -3.28326
rfingers 7.12502
rthumb 13.6157 -32.818
lclavicle 1.15295e-014 2.38542e-014
lhumerus -41.8042 -0.987755 85.1193
lradius 51.9617
lwrist 4.36519
lhand -10.8206 47.5665
lfingers 7.12502
lthumb 15.1934 76.9887
rfemur -7.64879 3.84863 27.9498
rtibia 32.3326
rfoot -12.0775 -10.0788
rtoes 16.5898
lfemur -13.1504 0.494446 -16.7183
ltibia 69.7793
lfoot 8.50314 -7.81552
ltoes -14.235
